# xmcd CD database file
#
# Track frame offsets:
#	150
#	22323
#	41070
#	56473
#	71543
#	90835
#	108525
#	127785
#
# Disc length: 1855 seconds
#
# Revision: 0
# Processed by: cddbd v1.5.2PL0 Copyright (c) Steve Scherf et al.
# Submitted via: CDex 1.70beta2
#
DISCID=63073d08
DTITLE=Gabino Pampini - Salson
DYEAR=1900
DGENRE=Salsa
TTITLE0=Canto por no llorar
TTITLE1=Las mujeres
TTITLE2=No vayas a pensar
TTITLE3=esta vieja cancion
TTITLE4=Inspiracion y algo mas
TTITLE5=A mi gente en alta mar
TTITLE6=Concepcion
TTITLE7=Soledad
EXTD=
EXTT0=
EXTT1=
EXTT2=
EXTT3=
EXTT4=
EXTT5=
EXTT6=
EXTT7=
PLAYORDER=
